<svg width="150" height="150" viewBox="0 0 150 150" fill="none" xmlns="http://www.w3.org/2000/svg">
<path id="Ellipse 4" d="M150 75C150 89.8336 145.601 104.334 137.36 116.668C129.119 129.001 117.406 138.614 103.701 144.291C89.9968 149.968 74.9168 151.453 60.3682 148.559C45.8196 145.665 32.4559 138.522 21.967 128.033C11.4781 117.544 4.335 104.18 1.4411 89.6318C-1.45279 75.0832 0.0324627 60.0032 5.70904 46.2987C11.3856 32.5943 20.9985 20.8809 33.3322 12.6398C45.6659 4.39867 60.1664 -1.76889e-07 75 0V6.49889C61.4518 6.49889 48.2078 10.5164 36.9428 18.0434C25.6779 25.5704 16.8979 36.2688 11.7132 48.7858C6.52854 61.3027 5.17199 75.076 7.81512 88.3639C10.4583 101.652 16.9824 113.858 26.5624 123.438C36.1425 133.018 48.3482 139.542 61.6361 142.185C74.924 144.828 88.6973 143.471 101.214 138.287C113.731 133.102 124.43 124.322 131.957 113.057C139.484 101.792 143.501 88.5482 143.501 75H150Z" fill="#409BEE"/>
</svg>
