<svg width="79" height="79" viewBox="0 0 79 79" fill="none" xmlns="http://www.w3.org/2000/svg">
  <path id="Ellipse_33" d="M79 39.5C79 47.7543 76.4141 55.8012 71.6057 62.5103C66.7972 69.2194 60.0078 74.2536 52.1912 76.9057C44.3745 79.5577 35.9234 79.6944 28.0251 77.2965C20.1268 74.8986 13.1781 70.0866 8.15521 63.5365C3.13231 56.9864 0.287588 49.0273 0.0206591 40.7774C-0.246269 32.5274 2.07801 24.4011 6.66699 17.54C11.256 10.6789 17.8791 5.42775 25.6059 2.5243C33.3326 -0.379156 41.7749 -0.789059 49.7466 1.35217L48.8943 4.52538C41.5857 2.56226 33.8457 2.93807 26.7616 5.6C19.6775 8.26194 13.6054 13.0763 9.3981 19.3666C5.19084 25.657 3.0599 33.1074 3.30462 40.6711C3.54935 48.2348 6.15744 55.5319 10.7625 61.5371C15.3676 67.5424 21.7383 71.9541 28.9796 74.1525C36.2209 76.351 43.969 76.2257 51.1355 73.7942C58.3019 71.3627 64.5266 66.7473 68.9351 60.5963C73.3436 54.4452 75.7143 47.0677 75.7143 39.5H79Z" fill="#ABEFEB"/>
  <path id="border" d="M79 39.5C79 47.7543 76.4141 55.8012 71.6057 62.5103C66.7972 69.2194 60.0078 74.2536 52.1912 76.9057C44.3745 79.5577 35.9234 79.6944 28.0251 77.2965C20.1268 74.8986 13.1781 70.0866 8.15521 63.5365C3.13231 56.9864 0.287588 49.0273 0.0206591 40.7774C-0.246269 32.5274 2.07801 24.4011 6.66699 17.54C11.256 10.6789 17.8791 5.42775 25.6059 2.5243C33.3326 -0.379156 41.7749 -0.789059 49.7466 1.35217L48.8943 4.52538C41.5857 2.56226 33.8457 2.93807 26.7616 5.6C19.6775 8.26194 13.6054 13.0763 9.3981 19.3666C5.19084 25.657 3.0599 33.1074 3.30462 40.6711C3.54935 48.2348 6.15744 55.5319 10.7625 61.5371C15.3676 67.5424 21.7383 71.9541 28.9796 74.1525C36.2209 76.351 43.969 76.2257 51.1355 73.7942C58.3019 71.3627 64.5266 66.7473 68.9351 60.5963C73.3436 54.4452 75.7143 47.0677 75.7143 39.5H79Z" stroke="white" stroke-width="2"/>
</svg>
