<svg width="80" height="80" viewBox="0 0 80 80" fill="none" xmlns="http://www.w3.org/2000/svg">
<path id="Ellipse 24" d="M80 40C80 47.9113 77.654 55.6448 73.2588 62.2228C68.8635 68.8008 62.6164 73.9277 55.3073 76.9552C47.9983 79.9827 39.9556 80.7748 32.1964 79.2314C24.4371 77.688 17.3098 73.8784 11.7157 68.2843C6.12163 62.6902 2.312 55.5629 0.768589 47.8036C-0.77482 40.0444 0.0173134 32.0017 3.04482 24.6927C6.07232 17.3836 11.1992 11.1365 17.7772 6.74122C24.3552 2.34596 32.0887 -9.43407e-08 40 0V14.554C34.9673 14.554 30.0475 16.0464 25.8629 18.8424C21.6784 21.6384 18.4169 25.6126 16.4909 30.2622C14.565 34.9119 14.0611 40.0282 15.0429 44.9643C16.0248 49.9003 18.4483 54.4344 22.0069 57.9931C25.5656 61.5517 30.0997 63.9752 35.0357 64.9571C39.9718 65.9389 45.0881 65.435 49.7378 63.5091C54.3874 61.5831 58.3615 58.3216 61.1576 54.1371C63.9536 49.9525 65.446 45.0327 65.446 40H80Z" fill="#409BEE"/>
</svg>
