<svg width="20" height="21" viewBox="0 0 20 21" fill="none" xmlns="http://www.w3.org/2000/svg">
<path id="Icon" d="M6 8.23026H10M6 11.7303H13M10 19.7303C14.9706 19.7303 19 15.7008 19 10.7303C19 5.75969 14.9706 1.73026 10 1.73026C5.02944 1.73026 1 5.75969 1 10.7303C1 11.9274 1.23374 13.07 1.65806 14.1148C1.73927 14.3147 1.77988 14.4147 1.798 14.4955C1.81572 14.5746 1.8222 14.6331 1.82221 14.7141C1.82222 14.797 1.80718 14.8872 1.77711 15.0676L1.18413 18.6255C1.12203 18.9981 1.09098 19.1844 1.14876 19.3191C1.19933 19.437 1.29328 19.5309 1.41118 19.5815C1.54589 19.6393 1.73218 19.6082 2.10476 19.5461L5.66265 18.9531C5.84309 18.9231 5.9333 18.908 6.01613 18.908C6.09715 18.9081 6.15566 18.9145 6.23472 18.9323C6.31554 18.9504 6.41552 18.991 6.61549 19.0722C7.6603 19.4965 8.80286 19.7303 10 19.7303Z" stroke="#CCCCCC" stroke-width="2" stroke-linecap="round" stroke-linejoin="round"/>
</svg>
