<svg width="18" height="23" viewBox="0 0 18 23" fill="none" xmlns="http://www.w3.org/2000/svg">
<rect width="18" height="23" fill="#1E1E1E"/>
<rect x="-72" y="-289" width="1440" height="1024" rx="40" fill="#111729"/>
<path d="M11 2.01953V6.15007C11 6.71012 11 6.99015 11.109 7.20406C11.2049 7.39222 11.3578 7.5452 11.546 7.64108C11.7599 7.75007 12.0399 7.75007 12.6 7.75007H16.7305M13 12.75H5M13 16.75H5M7 8.75H5M11 1.75H5.8C4.11984 1.75 3.27976 1.75 2.63803 2.07698C2.07354 2.3646 1.6146 2.82354 1.32698 3.38803C1 4.02976 1 4.86984 1 6.55V16.95C1 18.6302 1 19.4702 1.32698 20.112C1.6146 20.6765 2.07354 21.1354 2.63803 21.423C3.27976 21.75 4.11984 21.75 5.8 21.75H12.2C13.8802 21.75 14.7202 21.75 15.362 21.423C15.9265 21.1354 16.3854 20.6765 16.673 20.112C17 19.4702 17 18.6302 17 16.95V7.75L11 1.75Z" stroke="#CCCCCC" stroke-width="2" stroke-linecap="round" stroke-linejoin="round"/>
</svg>
