<svg width="20" height="23" viewBox="0 0 20 23" fill="none" xmlns="http://www.w3.org/2000/svg">
<g id="Icon">
<path d="M7.35012 19.1013L7.93457 20.4158C8.1083 20.8071 8.39184 21.1395 8.75079 21.3728C9.10974 21.6061 9.52867 21.7303 9.95679 21.7302C10.3849 21.7303 10.8038 21.6061 11.1628 21.3728C11.5217 21.1395 11.8053 20.8071 11.979 20.4158L12.5635 19.1013C12.7715 18.6349 13.1215 18.2461 13.5635 17.9902C14.0082 17.7337 14.5228 17.6244 15.0335 17.678L16.4635 17.8302C16.8891 17.8753 17.3187 17.7958 17.7001 17.6016C18.0816 17.4073 18.3984 17.1065 18.6123 16.7358C18.8265 16.3652 18.9286 15.9405 18.9061 15.5131C18.8836 15.0857 18.7376 14.674 18.4857 14.328L17.639 13.1647C17.3375 12.7474 17.1764 12.245 17.179 11.7302C17.1789 11.2168 17.3415 10.7166 17.6435 10.3013L18.4901 9.138C18.742 8.79198 18.888 8.38029 18.9105 7.9529C18.933 7.5255 18.831 7.10077 18.6168 6.73022C18.4029 6.35946 18.086 6.05871 17.7046 5.86445C17.3232 5.67019 16.8936 5.59076 16.4679 5.63578L15.0379 5.788C14.5272 5.84163 14.0127 5.73235 13.5679 5.47578C13.125 5.21848 12.775 4.82758 12.5679 4.35911L11.979 3.04467C11.8053 2.6534 11.5217 2.32094 11.1628 2.08762C10.8038 1.85431 10.3849 1.73015 9.95679 1.73022C9.52867 1.73015 9.10974 1.85431 8.75079 2.08762C8.39184 2.32094 8.1083 2.6534 7.93457 3.04467L7.35012 4.35911C7.14305 4.82758 6.79299 5.21848 6.35012 5.47578C5.90534 5.73235 5.39079 5.84163 4.88012 5.788L3.44568 5.63578C3.02001 5.59076 2.59042 5.67019 2.20899 5.86445C1.82757 6.05871 1.51069 6.35946 1.29679 6.73022C1.08261 7.10077 0.98057 7.5255 1.00305 7.9529C1.02554 8.38029 1.17158 8.79198 1.42345 9.138L2.27012 10.3013C2.57206 10.7166 2.73466 11.2168 2.73456 11.7302C2.73466 12.2436 2.57206 12.7439 2.27012 13.1591L1.42345 14.3224C1.17158 14.6685 1.02554 15.0802 1.00305 15.5076C0.98057 15.9349 1.08261 16.3597 1.29679 16.7302C1.5109 17.1008 1.82782 17.4014 2.20918 17.5956C2.59055 17.7899 3.02004 17.8694 3.44568 17.8247L4.87568 17.6724C5.38634 17.6188 5.90089 17.7281 6.34568 17.9847C6.7902 18.2412 7.14188 18.6322 7.35012 19.1013Z" stroke="#CCCCCC" stroke-width="2" stroke-linecap="round" stroke-linejoin="round"/>
<path d="M9.955 14.7302C11.6119 14.7302 12.955 13.3871 12.955 11.7302C12.955 10.0734 11.6119 8.73022 9.955 8.73022C8.29815 8.73022 6.955 10.0734 6.955 11.7302C6.955 13.3871 8.29815 14.7302 9.955 14.7302Z" stroke="#CCCCCC" stroke-width="2" stroke-linecap="round" stroke-linejoin="round"/>
</g>
</svg>
