<svg width="22" height="21" viewBox="0 0 22 21" fill="none" xmlns="http://www.w3.org/2000/svg">
<path d="M8 19.75V12.35C8 11.7899 8 11.5099 8.109 11.296C8.20487 11.1078 8.35785 10.9549 8.54601 10.859C8.75993 10.75 9.03995 10.75 9.6 10.75H12.4C12.9601 10.75 13.2401 10.75 13.454 10.859C13.6422 10.9549 13.7951 11.1078 13.891 11.296C14 11.5099 14 11.7899 14 12.35V19.75M1 8.25L10.04 1.47C10.3843 1.21181 10.5564 1.08271 10.7454 1.03294C10.9123 0.989018 11.0877 0.989018 11.2546 1.03295C11.4436 1.08271 11.6157 1.21181 11.96 1.47L21 8.25M3 6.75V16.55C3 17.6701 3 18.2302 3.21799 18.658C3.40974 19.0343 3.7157 19.3403 4.09202 19.532C4.51985 19.75 5.0799 19.75 6.2 19.75H15.8C16.9201 19.75 17.4802 19.75 17.908 19.532C18.2843 19.3403 18.5903 19.0343 18.782 18.658C19 18.2302 19 17.6701 19 16.55V6.75L12.92 2.19C12.2315 1.67361 11.8872 1.41542 11.5091 1.31589C11.1754 1.22804 10.8246 1.22804 10.4909 1.31589C10.1128 1.41542 9.76852 1.67361 9.08 2.19L3 6.75Z" stroke="white" stroke-width="2" stroke-linecap="round" stroke-linejoin="round"/>
</svg>
