<svg width="22" height="23" viewBox="0 0 22 23" fill="none" xmlns="http://www.w3.org/2000/svg">
<path id="Icon" d="M20.2104 15.6249C19.5742 17.1294 18.5792 18.4551 17.3123 19.4862C16.0454 20.5173 14.5452 21.2224 12.9428 21.5397C11.3405 21.8571 9.68483 21.7771 8.12055 21.3067C6.55627 20.8364 5.13103 19.99 3.96942 18.8416C2.80782 17.6932 1.94522 16.2777 1.45704 14.7189C0.968859 13.1601 0.869965 11.5054 1.169 9.89957C1.46804 8.29371 2.1559 6.78556 3.17245 5.50696C4.189 4.22836 5.50329 3.21825 7.0004 2.56493M20.2392 7.9081C20.6395 8.87456 20.8851 9.8963 20.9684 10.9358C20.989 11.1926 20.9993 11.321 20.9483 11.4366C20.9057 11.5333 20.8213 11.6247 20.7284 11.6749C20.6172 11.7349 20.4783 11.7349 20.2004 11.7349H11.8004C11.5204 11.7349 11.3804 11.7349 11.2734 11.6804C11.1793 11.6325 11.1028 11.556 11.0549 11.4619C11.0004 11.355 11.0004 11.215 11.0004 10.9349V2.53493C11.0004 2.25707 11.0004 2.11813 11.0605 2.00692C11.1107 1.91401 11.2021 1.82962 11.2987 1.78703C11.4144 1.73603 11.5428 1.74633 11.7996 1.76692C12.839 1.85025 13.8608 2.09582 14.8272 2.49614C16.0405 2.99868 17.1429 3.73528 18.0715 4.66387C19.0001 5.59245 19.7367 6.69484 20.2392 7.9081Z" stroke="#CCCCCC" stroke-width="2" stroke-linecap="round" stroke-linejoin="round"/>
</svg>
